<?xml version="1.0" encoding="UTF-8"?>
<!DOCTYPE svg PUBLIC "-//W3C//DTD SVG 1.1//EN" "http://www.w3.org/Graphics/SVG/1.1/DTD/svg11.dtd">
<!-- Creator: CorelDRAW X6 -->
<svg xmlns="http://www.w3.org/2000/svg" xml:space="preserve" width="4.18055in" height="4.76389in" version="1.1" style="shape-rendering:geometricPrecision; text-rendering:geometricPrecision; image-rendering:optimizeQuality; fill-rule:evenodd; clip-rule:evenodd"
viewBox="0 0 4181 4764"
 xmlns:xlink="http://www.w3.org/1999/xlink">
 <defs>
  <style type="text/css">
   <![CDATA[
    .fil0 {fill:#373435;fill-rule:nonzero}
   ]]>
  </style>
 </defs>
 <g id="Layer_x0020_1">
  <metadata id="CorelCorpID_0Corel-Layer"/>
  <path class="fil0" d="M1319 1984c-22,59 -20,136 -1,195 27,80 75,141 145,187 46,31 117,36 169,22 51,-14 106,-53 131,-101 58,-110 23,-232 -79,-300 -2,-1 -4,-3 -6,-4 15,11 30,23 44,34 -8,-6 -15,-13 -21,-20 11,15 23,30 34,44 -6,-8 -11,-16 -15,-25 7,17 15,35 22,52 -4,-9 -6,-18 -8,-28 3,19 5,39 8,58 -1,-10 -2,-19 -1,-29 -3,19 -5,39 -8,58 1,-10 4,-19 7,-28 19,-51 4,-124 -22,-169 -27,-45 -79,-89 -131,-101 -56,-13 -119,-10 -169,22 -50,32 -80,75 -101,131z"/>
  <path class="fil0" d="M2101 1764c-88,117 -79,278 -17,404 51,103 205,140 300,79 106,-68 133,-190 79,-300 -2,-3 -3,-6 -5,-10 7,17 15,35 22,52 -6,-14 -9,-27 -12,-41 3,19 5,39 8,58 -2,-18 -2,-35 0,-54 -3,19 -5,39 -8,58 3,-14 6,-28 12,-41 -7,17 -15,35 -22,52 6,-13 13,-25 22,-37 32,-42 35,-120 22,-169 -14,-51 -53,-106 -101,-131 -51,-27 -112,-40 -169,-22 -58,19 -95,53 -131,101z"/>
  <path class="fil0" d="M1956 8c-518,216 -950,612 -1297,1047 -136,170 -270,350 -362,548 -130,279 -202,600 -252,902 -92,563 -69,1090 326,1545 319,369 834,618 1310,696 500,82 996,-124 1394,-415 641,-469 1113,-1213 1113,-2006 0,-165 -20,-332 -64,-499 -182,-700 -750,-1186 -1451,-1326 -812,-163 -1711,47 -2465,355 -163,67 -93,335 72,268 1040,-425 2816,-799 3454,450 432,844 24,1830 -655,2405 -307,260 -695,489 -1106,509 -450,22 -974,-215 -1299,-522 -200,-189 -338,-428 -389,-699 -15,-78 -21,-160 -18,-243 1,-25 3,-49 5,-74 3,-43 -3,28 0,0 57,-556 156,-1108 487,-1570 320,-444 757,-890 1270,-1104 140,-58 107,-267 -11,-278l-20 0c-13,1 -27,5 -41,11l0 0z"/>
  <path class="fil0" d="M990 3287c237,395 821,496 1240,414 434,-85 791,-405 922,-826 55,-176 -221,-250 -275,-75 -96,310 -355,538 -668,615 -301,73 -795,22 -972,-272 -94,-157 -341,-13 -246,144l0 0z"/>
 </g>
</svg>
