<?xml version="1.0" encoding="UTF-8"?>
<!DOCTYPE svg PUBLIC "-//W3C//DTD SVG 1.1//EN" "http://www.w3.org/Graphics/SVG/1.1/DTD/svg11.dtd">
<!-- Creator: CorelDRAW X6 -->
<svg xmlns="http://www.w3.org/2000/svg" xml:space="preserve" width="6.94444in" height="6.94444in" version="1.1" style="shape-rendering:geometricPrecision; text-rendering:geometricPrecision; image-rendering:optimizeQuality; fill-rule:evenodd; clip-rule:evenodd"
viewBox="0 0 6944 6944"
 xmlns:xlink="http://www.w3.org/1999/xlink">
 <defs>
  <style type="text/css">
   <![CDATA[
    .fil0 {fill:#2F2F39;fill-rule:nonzero}
   ]]>
  </style>
 </defs>
 <g id="Layer_x0020_1">
  <metadata id="CorelCorpID_0Corel-Layer"/>
  <path class="fil0" d="M4843 4487l-212 -162 250 108 -37 54zm713 -255c-13,-15 -262,-146 -373,-195 -23,-10 -56,-1 -84,-1 -15,0 -185,-29 -253,-49 -79,-22 -157,-45 -234,-70 52,156 -78,373 -199,469 93,61 288,187 345,235 39,33 62,65 61,117 -1,31 91,91 108,109 22,24 47,37 79,37 67,0 130,-15 189,-47 29,-15 47,-38 59,-69 10,-27 79,-115 108,-129 150,-71 124,-41 169,-207 10,-36 54,-168 25,-201z"/>
  <path class="fil0" d="M2357 2740c-34,-22 -68,-46 -91,-77 -73,-99 -145,-200 -167,-326 -13,-77 -45,-142 -100,-198 -23,-23 -43,-37 -77,-39 -25,-1 -54,-9 -72,-24 -42,-35 -60,-40 -109,-11 -36,22 -70,47 -107,68 -38,22 -57,55 -53,96 3,29 -10,40 -32,53 -84,47 -109,115 -76,204 7,20 3,31 -11,43 -22,20 -45,40 -64,63 -28,32 -26,94 8,117 36,24 53,57 72,92 23,44 58,70 114,60 37,-7 146,-1 161,5 26,10 238,95 318,127 2,1 80,46 205,121 8,-130 34,-256 80,-373z"/>
  <path class="fil0" d="M5546 2591c-20,-23 -42,-43 -64,-63 -14,-13 -18,-24 -11,-43 33,-89 8,-157 -76,-204 -22,-12 -35,-23 -32,-53 5,-42 -14,-74 -53,-96 -37,-21 -71,-46 -107,-68 -48,-29 -66,-24 -109,11 -19,15 -48,23 -72,24 -33,2 -54,16 -77,39 -55,56 -87,122 -100,198 -22,126 -95,227 -167,326 -21,29 -52,52 -84,73 47,120 69,247 73,377 125,-74 202,-119 204,-120 80,-32 292,-117 318,-127 15,-6 124,-12 161,-5 56,10 91,-16 114,-60 19,-36 36,-69 72,-92 35,-23 36,-85 8,-117z"/>
  <path class="fil0" d="M1894 4551l-90 -42 32 -103 42 81 74 64 -58 0zm479 -389c-44,-88 -74,-167 -47,-242 -75,24 -151,46 -227,67 -68,19 -238,49 -253,49 -28,0 -60,-10 -84,1 -111,49 -360,180 -373,195 -29,33 15,165 25,201 46,166 19,136 169,207 30,14 60,103 70,129 12,31 30,54 59,69 59,31 122,47 189,47 32,0 57,-13 79,-37 17,-18 109,-78 108,-109 -1,-51 22,-83 61,-117 60,-51 299,-186 393,-243 -65,-48 -119,-117 -169,-217z"/>
  <path class="fil0" d="M4038 4111c-114,-25 -264,-35 -351,-112 -105,-93 -156,-232 0,-280 180,-56 388,-241 542,-134 96,66 76,166 84,236 4,231 -88,332 -276,290zm-431 236c-81,63 -121,12 -136,2 -15,11 -54,62 -136,-2 -81,-63 -32,-164 10,-220 17,-23 51,-96 77,-140 26,-44 49,-58 49,-58 0,0 24,14 49,58 26,44 59,117 77,140 42,56 91,157 10,220zm-351 -348c-87,77 -237,87 -351,112 -188,42 -280,-59 -276,-290 8,-70 -11,-170 84,-236 154,-106 363,79 542,134 156,48 105,187 0,280zm1205 -126c-28,-23 -47,-66 -54,-102 -14,-75 -11,-153 -25,-228 -12,-62 -24,-97 -50,-155 -14,-32 -39,-55 -41,-84 -6,-70 1,-165 41,-229 -22,46 -24,87 -26,130 -1,41 -1,95 21,119 113,121 124,274 151,424 114,-386 191,-774 -52,-1137 -186,-277 -472,-415 -793,-475 -52,-10 -106,-14 -162,-14 -55,0 -110,4 -162,14 -321,60 -607,198 -793,475 -243,362 -166,751 -52,1137 27,-150 38,-303 151,-424 22,-24 22,-78 21,-119 -1,-43 -4,-84 -26,-130 40,64 47,159 41,229 -2,29 -27,51 -41,84 -26,58 -38,93 -50,155 -14,75 -11,153 -25,228 -7,37 -26,79 -54,102 -95,78 -103,99 -46,209 19,37 37,74 57,111 67,129 171,191 318,188 173,-4 197,-19 184,164l9 5c-6,-3 -9,-5 -9,-5l0 67c0,0 10,50 31,57 20,7 82,-43 82,-43 3,-13 -7,87 25,97l67 22 47 -98c0,0 0,91 23,115l61 2c20,-33 18,-118 18,-118 13,24 9,135 20,145l87 15c13,-16 16,-132 16,-153 0,20 -1,137 11,153l91 -15c11,-10 7,-121 20,-145 0,0 -1,85 18,118l61 -2c23,-25 23,-115 23,-115l47 98 67 -22c32,-10 22,-110 25,-97 0,0 62,50 82,43 20,-7 31,-57 31,-57l0 -67c0,0 -3,2 -9,5l9 -5c-13,-183 11,-168 184,-164 147,3 251,-60 318,-188 19,-37 38,-74 57,-111 56,-110 49,-131 -46,-209z"/>
 </g>
</svg>
