<?xml version="1.0" standalone="no"?>
<!DOCTYPE svg PUBLIC "-//W3C//DTD SVG 20010904//EN"
 "http://www.w3.org/TR/2001/REC-SVG-20010904/DTD/svg10.dtd">
<svg version="1.0" xmlns="http://www.w3.org/2000/svg"
 width="3020.000000pt" height="2051.000000pt" viewBox="0 0 3020.000000 2051.000000"
 preserveAspectRatio="xMidYMid meet">

<g transform="translate(0.000000,2051.000000) scale(0.100000,-0.100000)"
fill="#FF0000" stroke="none">
<path d="M2965 20473 c-56 -7 -138 -34 -207 -69 -89 -45 -146 -80 -466 -288
-147 -95 -321 -205 -387 -244 -201 -118 -282 -196 -354 -339 -51 -101 -64
-176 -65 -368 -1 -167 -1 -171 -29 -217 -35 -60 -85 -102 -219 -182 -337 -202
-518 -419 -594 -711 -23 -84 -27 -122 -27 -240 0 -162 19 -269 84 -473 46
-142 47 -195 8 -258 -11 -19 -98 -106 -192 -193 -192 -177 -331 -319 -377
-386 -150 -218 -144 -562 14 -733 23 -25 74 -69 115 -100 182 -134 271 -248
442 -564 97 -179 158 -266 245 -347 160 -149 356 -198 627 -157 145 23 361 28
622 16 325 -14 472 -32 571 -69 43 -16 569 -225 1169 -466 l1089 -437 401
-235 c220 -130 547 -323 727 -429 180 -107 329 -194 331 -194 3 0 8 44 11 98
59 836 228 1644 497 2387 39 108 69 198 67 199 -1 2 -52 36 -113 77 -278 187
-428 332 -621 595 -379 519 -597 860 -772 1210 -180 359 -270 626 -351 1040
-82 412 -206 728 -401 1021 -232 348 -476 574 -690 637 -30 9 -118 23 -195 31
-247 27 -381 78 -553 214 -175 137 -292 187 -407 174z"/>
<path d="M27140 20468 c-79 -12 -180 -66 -306 -165 -179 -140 -310 -191 -559
-218 -77 -8 -165 -22 -195 -31 -214 -63 -458 -289 -690 -637 -195 -293 -319
-609 -401 -1021 -84 -430 -174 -690 -371 -1078 -174 -344 -471 -800 -827
-1273 -127 -169 -302 -329 -524 -479 -48 -33 -87 -63 -87 -66 0 -4 25 -74 56
-156 256 -688 430 -1575 460 -2347 7 -187 9 -203 20 -200 5 1 128 72 274 158
146 87 470 278 720 425 l455 268 1090 437 c600 241 1126 450 1169 466 186 69
890 100 1193 53 271 -41 467 8 627 157 87 81 148 168 245 347 98 182 143 253
216 347 72 92 122 140 226 217 41 31 92 75 115 100 157 171 164 515 15 732
-47 68 -177 202 -373 383 -97 89 -186 178 -198 197 -38 63 -37 116 9 258 65
204 84 311 84 473 0 118 -4 156 -27 240 -76 292 -257 509 -594 711 -134 80
-184 122 -219 182 -27 46 -28 50 -29 217 -2 192 -15 268 -65 368 -72 143 -153
221 -354 339 -66 39 -240 149 -387 244 -147 96 -296 192 -332 214 -192 117
-316 156 -436 138z"/>
<path d="M14690 19914 c-406 -28 -767 -85 -1250 -196 -1543 -354 -2796 -935
-3805 -1763 -363 -298 -748 -688 -1047 -1062 -958 -1196 -1460 -2569 -1507
-4120 -36 -1203 167 -2463 691 -4283 38 -135 73 -248 77 -253 4 -4 35 160 70
365 78 464 121 695 171 915 169 742 405 1243 795 1688 162 184 194 291 202
675 10 443 -24 753 -111 1008 -14 39 -23 72 -20 72 11 0 76 -155 114 -268 101
-307 149 -679 136 -1072 -3 -113 -11 -227 -16 -255 -14 -67 -72 -187 -157
-320 -84 -131 -122 -207 -197 -383 -132 -315 -208 -553 -270 -852 -61 -291
-80 -448 -121 -990 -54 -713 -94 -923 -227 -1183 -80 -157 -153 -244 -328
-393 -185 -157 -372 -348 -420 -429 -56 -95 -79 -176 -80 -281 0 -134 35 -259
137 -488 56 -125 533 -1061 600 -1176 217 -375 506 -681 833 -883 173 -106
426 -209 645 -260 277 -65 498 -80 980 -66 628 19 819 -5 944 -117 60 -54 103
-135 128 -242 21 -89 23 -384 9 -968 l-9 -331 27 -94 c49 -174 124 -299 195
-329 41 -17 111 0 209 49 84 42 234 139 324 207 31 24 58 44 61 44 2 0 7 -73
10 -162 10 -267 47 -419 116 -489 32 -32 65 -46 288 -120 139 -46 254 -81 256
-79 2 3 75 155 162 338 87 182 162 332 165 332 4 0 10 -57 14 -126 16 -301 73
-565 139 -647 l23 -29 220 -5 220 -6 21 49 c60 139 103 420 103 672 0 50 4 92
9 92 23 0 52 -217 77 -585 17 -260 35 -390 57 -412 8 -8 137 -35 318 -67 296
-52 304 -53 321 -34 33 37 71 277 85 537 10 204 18 189 31 -60 12 -247 32
-405 56 -464 13 -29 19 -35 38 -30 13 3 160 27 327 55 185 30 310 55 318 63
22 22 40 152 57 412 25 368 54 585 77 585 5 0 9 -42 9 -92 0 -252 43 -533 103
-672 l21 -49 220 6 220 5 23 29 c66 82 123 346 139 647 4 69 10 126 14 126 3
0 78 -150 165 -332 87 -183 160 -335 162 -338 2 -2 117 33 256 79 223 74 256
88 288 120 69 70 106 222 116 489 3 89 8 162 10 162 3 0 30 -20 61 -44 90 -68
240 -165 324 -207 98 -49 168 -66 209 -49 71 30 145 154 195 331 l27 92 -9
331 c-14 584 -12 879 9 968 25 107 68 188 128 242 124 112 315 136 939 117
374 -11 569 -5 766 24 412 60 778 215 1092 463 182 143 407 402 550 632 125
200 632 1196 705 1386 115 295 117 463 7 649 -48 81 -245 282 -419 429 -169
142 -245 232 -324 384 -138 267 -177 472 -232 1192 -41 542 -60 699 -121 990
-62 299 -138 537 -270 852 -75 176 -113 252 -197 383 -85 133 -143 253 -157
320 -5 28 -13 142 -16 255 -13 393 35 765 136 1072 38 113 103 268 114 268 3
0 -6 -33 -20 -72 -87 -255 -121 -565 -111 -1008 8 -384 40 -491 202 -675 390
-445 626 -946 795 -1688 50 -220 93 -451 171 -915 35 -205 66 -369 70 -365 4
5 39 118 77 253 453 1573 661 2704 691 3758 48 1686 -372 3094 -1312 4390
-337 466 -792 948 -1242 1317 -1090 895 -2488 1510 -4185 1844 -469 92 -683
112 -1215 116 -231 1 -445 1 -475 -1z m-4050 -10308 c424 -57 803 -202 1725
-664 643 -321 831 -405 1160 -514 263 -87 404 -165 530 -292 83 -85 136 -172
171 -281 120 -376 -101 -889 -582 -1355 -199 -193 -374 -310 -629 -421 -330
-144 -656 -228 -1450 -373 -225 -42 -461 -87 -524 -101 -561 -124 -999 -78
-1328 141 -364 242 -574 685 -655 1379 -26 228 -10 1008 28 1293 46 353 160
601 374 812 311 308 717 437 1180 376z m9360 -1 c282 -42 532 -170 740 -375
215 -212 327 -457 375 -817 36 -277 53 -1064 27 -1288 -68 -580 -222 -975
-482 -1235 -339 -339 -833 -433 -1501 -285 -63 14 -298 59 -524 101 -794 145
-1120 229 -1450 373 -255 111 -430 228 -629 421 -481 466 -702 979 -582 1355
35 109 88 196 171 281 126 127 267 205 530 292 329 109 518 193 1160 514 792
397 1145 543 1502 623 241 55 476 69 663 40z m-4832 -2754 c60 -50 152 -158
222 -260 55 -82 154 -261 320 -581 181 -348 210 -398 346 -602 328 -487 414
-893 259 -1213 -73 -152 -190 -272 -376 -388 -159 -99 -330 -147 -454 -127
-120 19 -192 53 -305 145 l-80 66 -80 -66 c-113 -92 -185 -126 -305 -145 -124
-20 -295 28 -454 127 -186 116 -303 236 -376 388 -155 320 -69 726 259 1213
131 195 167 257 351 612 237 455 296 556 416 705 58 72 169 175 189 175 5 0
35 -22 68 -49z"/>
<path d="M23305 6973 c14 -37 45 -172 61 -268 19 -121 22 -369 5 -510 -43
-351 -148 -687 -335 -1070 -268 -551 -647 -1056 -1056 -1408 -58 -50 -106 -94
-108 -97 -1 -4 93 -69 210 -145 951 -619 1689 -1117 2046 -1383 357 -265 536
-467 614 -692 24 -70 48 -217 48 -296 0 -148 114 -275 580 -645 80 -64 171
-140 202 -171 225 -220 409 -279 782 -249 387 31 729 124 1070 291 245 120
372 252 484 507 104 235 433 662 666 864 82 72 105 84 406 221 542 246 619
305 711 544 34 88 54 157 143 501 37 139 95 354 131 477 148 511 198 763 199
991 1 177 -14 245 -67 297 -50 49 -369 235 -762 443 -49 26 -94 51 -100 55 -9
7 -100 54 -540 282 -276 144 -1096 548 -1110 548 -2 0 -39 16 -82 36 -167 78
-224 85 -488 59 -105 -10 -208 -15 -247 -11 -192 18 -1024 170 -1453 266 -289
65 -1160 314 -1814 519 -106 34 -196 61 -198 61 -3 0 -2 -8 2 -17z m1055
-3308 c464 -201 850 -370 857 -373 17 -10 -237 -377 -259 -376 -16 1 -1451
1095 -1464 1116 -9 14 -118 60 866 -367z"/>
<path d="M6725 6938 c-407 -134 -1551 -463 -1838 -527 -432 -97 -1263 -249
-1455 -267 -39 -4 -142 1 -247 11 -190 19 -302 16 -370 -8 -56 -21 -215 -93
-465 -212 -171 -82 -835 -415 -975 -490 -44 -23 -152 -80 -240 -125 -88 -45
-164 -86 -170 -90 -5 -4 -55 -31 -110 -60 -384 -203 -702 -389 -752 -437 -42
-42 -63 -112 -70 -233 -12 -210 46 -517 202 -1055 35 -121 102 -367 149 -546
112 -429 155 -543 243 -640 83 -91 170 -141 578 -329 275 -127 327 -154 367
-194 117 -115 229 -333 387 -756 106 -281 198 -426 339 -531 242 -179 736
-351 1152 -401 165 -19 441 -17 519 5 136 39 259 115 396 247 39 37 161 140
273 229 233 187 366 309 427 396 55 77 68 108 66 167 -2 71 27 244 53 319 50
144 148 282 302 428 254 240 717 535 2337 1486 317 187 577 342 577 346 0 4
-42 39 -92 80 -132 103 -385 361 -512 519 -209 261 -414 592 -610 980 -234
463 -341 753 -392 1055 -33 199 -16 463 40 623 19 52 17 52 -109 10z m-3246
-3759 l145 -280 258 -225 c142 -124 258 -229 258 -235 0 -5 -79 -9 -192 -9
l-193 0 -320 151 c-176 83 -324 154 -328 158 -5 5 39 163 97 352 58 190 106
350 106 357 0 45 43 -23 169 -269z"/>
</g>
</svg>
